<svg width="108" height="51" viewBox="0 0 108 51" fill="none" xmlns="http://www.w3.org/2000/svg">
<path d="M59.8902 50.4878C57.1971 50.4878 54.9451 49.9639 53.1343 48.9069C51.3235 47.859 49.9632 46.3148 49.0348 44.2834C48.6396 43.4102 48.3178 42.4543 48.0697 41.4064C47.4906 38.9522 49.0808 36.498 51.5533 36.0109C53.0975 35.7075 54.5407 36.7646 54.7888 38.318C54.8807 38.9154 55.0002 39.4853 55.1473 40.0185C55.4966 41.3513 56.0297 42.3715 56.7559 43.0885C57.4728 43.8055 58.4288 44.1639 59.6053 44.1639C60.9381 44.1639 61.8757 43.7687 62.4272 42.9782C62.9787 42.1877 63.2544 41.1766 63.2544 39.9633C63.2544 38.0055 62.8132 36.4061 61.9216 35.1468C61.0392 33.8968 59.8535 32.6375 58.3828 31.3782L52.7391 26.3963C51.1489 25.0359 49.8896 23.5101 48.9429 21.828C48.0053 20.1459 47.5273 18.0778 47.5273 15.6052C47.5273 12.0664 48.5568 9.33642 50.625 7.41535C52.6931 5.49427 55.515 4.53833 59.0906 4.53833C61.1955 4.53833 62.9419 4.86004 64.3482 5.50346C65.7546 6.14688 66.8668 7.04768 67.694 8.18745C68.5213 9.32723 69.1463 10.6325 69.5508 12.0939C69.6795 12.5443 69.7897 13.0131 69.8909 13.4819C70.2585 15.2375 69.0636 16.938 67.2988 17.2505C65.249 17.609 63.328 16.2486 62.8959 14.208V14.1713C62.6478 13.0683 62.2249 12.195 61.6183 11.57C61.0116 10.945 60.1108 10.6325 58.9343 10.6325C57.7578 10.6325 56.7834 11.0277 56.14 11.8182C55.4966 12.6087 55.1749 13.6014 55.1749 14.7779C55.1749 16.2946 55.4874 17.5355 56.1124 18.5098C56.7375 19.4841 57.6475 20.4952 58.824 21.5247L64.4126 26.4514C66.2601 28.0048 67.8319 29.8156 69.1463 31.9021C70.4516 33.9887 71.1134 36.5072 71.1134 39.4578C71.1134 41.5994 70.6446 43.5021 69.6978 45.1566C68.7603 46.8203 67.4458 48.1164 65.7638 49.0631C64.0817 50.0007 62.1146 50.4787 59.8719 50.4787L59.8902 50.4878Z" fill="white"/>
<path d="M77.4269 46.0473L72.3255 10.1352C71.9486 7.45121 74.026 5.04297 76.7467 5.04297C77.7303 5.04297 78.5667 5.77831 78.6862 6.75263L82.179 34.1073L86.2234 8.91269C86.5727 6.75263 88.4386 5.16246 90.6263 5.16246C91.6557 5.16246 92.5382 5.90699 92.7036 6.92728L97.1708 34.1165L100.333 8.95865C100.618 6.72506 102.511 5.05216 104.763 5.05216C106.252 5.05216 107.392 6.36658 107.19 7.84645L101.721 47.0584C101.491 48.6854 100.103 49.8895 98.4668 49.8895C96.2884 49.8895 94.4225 48.3085 94.064 46.1576L89.6979 19.8325L85.2491 46.9941C84.9733 48.667 83.5302 49.8895 81.839 49.8895C79.6146 49.8895 77.7302 48.2534 77.4177 46.0565L77.4269 46.0473Z" fill="white"/>
<path d="M5.99086 23.0976C4.68563 22.9138 3.53666 23.6675 3.4907 25.0463C3.44474 26.3056 4.50179 27.2891 5.75187 27.142C6.1655 27.0961 6.51479 26.8203 6.51479 26.3791C6.51479 26.0022 6.1655 25.5702 5.75187 25.6162C5.6048 25.6346 5.40259 25.6346 5.33824 25.6162C5.29229 25.607 5.20956 25.561 5.1636 25.5151C5.08087 25.4324 5.03491 25.2853 5.02572 25.129C5.02572 24.9911 5.09007 24.7889 5.13602 24.7246C5.24633 24.5959 5.33824 24.5408 5.58642 24.5775C6.00005 24.6327 6.40449 24.4764 6.52398 24.0444C6.62509 23.6859 6.39529 23.162 5.99086 23.1068V23.0976Z" fill="white"/>
<path d="M29.7695 39.0548C27.1499 40.4703 23.7581 38.4205 23.7397 35.4608C23.7397 34.4773 22.2047 34.4773 22.2139 35.4608C22.2415 39.5971 26.9109 42.327 30.5416 40.3692C31.4056 39.9004 30.6335 38.586 29.7695 39.0456V39.0548Z" fill="white"/>
<path d="M39.7795 20.0458V18.2166C40.0369 18.474 40.2299 18.8049 40.331 19.2001C40.5608 20.1561 42.0407 19.7516 41.8017 18.7957C41.5167 17.6375 40.7354 16.8287 39.7795 16.415V14.8616C42.1694 12.6281 42.776 8.92378 41.5719 5.93646C40.9652 4.41982 39.9358 3.1146 38.5294 2.26895C36.6451 1.13837 34.4575 0.926962 32.325 1.25786C31.176 1.43251 30.073 1.7726 28.9976 2.20461C28.5012 2.39764 27.9222 2.70097 27.3798 2.6642C26.81 2.61824 26.3963 2.14946 25.9827 1.80937C24.5028 0.605249 22.5174 0.200812 20.6791 0.724742C19.7599 0.982111 18.951 1.46927 18.2616 2.12189C18.1054 2.26895 18.0226 2.41602 17.8572 2.41602C17.6826 2.41602 17.3884 2.25057 17.223 2.20461C16.791 2.07593 16.3497 2.0024 15.8993 1.94725C14.3919 1.78179 12.8937 2.20461 11.6711 3.09621C9.21695 4.89779 7.9393 7.98622 7.28669 10.9643C5.86197 9.79699 3.75706 9.51205 2.21284 10.8357C1.15579 11.7364 0.797316 13.391 1.35801 14.6502C2.06578 16.2496 3.7111 17.0217 5.10824 17.9317V20.2296C4.02362 20.3307 2.97576 20.8914 2.19446 21.6452C-0.195389 23.9707 0.576717 28.0242 3.6008 29.3938C4.33614 29.7247 5.10824 29.8718 5.86197 29.8534C5.89873 29.8534 5.9355 29.8534 5.97227 29.8534C6.01823 29.8534 6.07337 29.8534 6.11014 29.8442C7.0477 35.3592 7.75547 40.9019 8.23344 46.472C8.17829 46.6927 8.23343 46.9316 8.44484 47.143C11.7263 50.3234 16.745 51.1047 20.8537 49.156C21.0651 49.0549 21.1846 48.8987 21.2306 48.7332C22.9862 49.6616 24.8889 50.2682 26.8651 50.4521C29.7421 50.7186 32.8857 49.873 35.0733 47.9243C37.1966 46.0308 38.6397 43.4939 39.2648 40.7272C39.9909 37.4825 39.853 34.0908 39.9449 30.7909C41.1583 30.1475 42.105 28.9618 42.5554 27.5738C43.3919 24.9817 42.1142 21.5257 39.7979 20.0642L39.7795 20.0458ZM36.351 18.667C36.7646 17.9225 37.5091 17.5732 38.2445 17.5916V19.4299C37.5367 19.2921 36.7738 19.3196 35.9649 19.5862C33.8876 20.2756 33.0879 22.3161 33.1155 24.3383C33.0787 24.4302 33.0511 24.5405 33.0603 24.6784V24.7336C32.4169 24.3475 31.6908 24.1453 30.9554 24.1269C30.8543 24.1085 30.7532 24.1085 30.6521 24.1269C29.8432 24.1545 29.0343 24.4027 28.3358 24.8439C27.3247 21.4889 23.5101 19.0807 19.9805 20.2204C18.7948 20.6065 17.9491 21.351 17.416 22.2886C15.7982 21.9577 14.1897 21.636 12.5719 21.3051V18.713C12.5719 18.6211 12.5536 18.5291 12.5352 18.4556C12.8293 15.7257 14.3919 13.4553 16.9196 12.288C19.4474 11.1206 22.4806 11.1849 25.0727 12.0857C26.571 12.6005 27.9405 13.4461 29.0711 14.5491C29.2917 15.2569 30.5326 15.1742 30.5694 14.2826C30.6521 12.1593 32.1228 10.6978 34.2736 10.8265C36.1855 10.9368 37.932 12.3247 38.2353 14.2458V16.0841C36.976 16.0658 35.7076 16.6448 35.0182 17.8949C34.5402 18.7589 35.8638 19.531 36.3418 18.667H36.351ZM22.977 30.8185C21.5982 30.9288 20.1735 30.4141 19.3371 29.2927C18.7028 28.4378 18.4179 27.3716 18.2892 26.3146C18.3444 26.2043 18.3627 26.0756 18.3444 25.9193C18.1421 24.3659 18.3995 22.7114 19.8978 21.9117C21.1478 21.2407 22.784 21.4062 24.034 21.9852C25.6426 22.7298 26.5618 24.0626 26.9754 25.7539C27.0122 25.8825 27.0306 26.0204 27.0489 26.1491C26.9662 26.3421 26.9938 26.526 27.0857 26.673C27.0673 28.8147 25.137 30.6531 22.9862 30.8277L22.977 30.8185ZM2.95737 14.4388C2.43344 13.7035 2.47022 12.5913 3.17798 11.9846C4.39129 10.9368 6.30317 11.6261 6.99255 12.9406C7.01094 13.0049 7.03851 13.0693 7.07528 13.1244C7.09366 13.1612 7.10285 13.1887 7.11205 13.2255C7.44295 14.1447 8.91363 13.7494 8.58272 12.8211C8.55515 12.7475 8.52757 12.6648 8.49081 12.5913C8.93201 9.94406 9.79603 7.07624 11.662 5.10001C12.5168 4.19003 13.6198 3.51903 14.8883 3.4455C15.6604 3.39954 16.4049 3.53742 17.131 3.78559C17.5447 3.92347 17.848 4.09811 18.2892 3.94185C18.758 3.7764 19.0797 3.39035 19.4382 3.06864C20.6791 1.96563 22.6093 1.70826 24.1076 2.43441C24.9165 2.82046 25.4772 3.57418 26.2952 3.95105C27.2879 4.41063 28.2898 4.1073 29.255 3.73044C32.5364 2.41602 37.0036 1.80937 39.3659 5.10001C41.0112 7.38876 41.048 10.6886 39.4118 12.9498C38.5938 10.8632 36.6083 9.44771 34.2645 9.30983C32.996 9.2363 31.7091 9.60396 30.7348 10.422C29.9995 11.0287 29.5399 11.8376 29.2825 12.72C24.6775 9.06165 16.8553 8.59287 12.9488 13.4461C11.7079 14.9903 11.1013 16.8563 10.9726 18.8141C10.9634 18.9612 10.991 19.0898 11.0461 19.191V21.0017C9.56624 20.6984 8.08637 20.4043 6.6065 20.1009V17.6927C6.6065 17.6192 6.6065 17.5548 6.57892 17.4905C6.57892 17.2607 6.47782 17.0401 6.23883 16.8746C5.15421 16.1117 3.73868 15.551 2.94819 14.4388H2.95737ZM11.0461 24.274L8.79414 24.3199L8.76656 23.2905C8.76656 23.1618 8.72979 23.0423 8.68383 22.9504C8.59191 22.6103 8.47243 22.2886 8.30697 21.9944L11.0461 22.5459V24.274ZM35.0457 45.7275C33.8049 47.1247 32.2331 48.1082 30.4958 48.6045V47.1063C30.4958 46.1228 28.97 46.1228 28.97 47.1063V48.8987C28.6207 48.9354 28.2714 48.9538 27.9222 48.9538C25.2749 48.9538 22.7196 47.9703 20.5412 46.518C18.0318 44.8359 15.9821 42.4828 14.686 39.7621C14.2632 38.8705 12.9396 39.6518 13.3624 40.5342C14.7596 43.4663 17.0667 46.0952 19.8518 47.9152C16.4968 49.395 12.4341 48.6965 9.73169 46.2423C9.24453 40.6077 8.52758 35.0008 7.58083 29.4306C8.04041 29.2283 8.47242 28.9618 8.86766 28.6033C9.603 27.9507 8.51838 26.8661 7.78304 27.5187C5.42076 29.6328 1.44074 27.1234 2.3783 24.0718C2.71839 22.9688 3.7111 22.0772 4.8233 21.7922C6.08257 21.4705 6.91902 22.1967 7.22235 23.3916C7.22235 23.41 7.23154 23.4283 7.24073 23.4467C7.25911 23.9799 7.26831 24.5038 7.28669 25.0369C7.28669 25.1656 7.32345 25.2851 7.36941 25.377C7.46133 25.6344 7.69112 25.8458 8.05879 25.8366L11.7171 25.7631C11.9193 25.7631 12.0848 25.6895 12.2043 25.5792C12.4249 25.4689 12.5811 25.2483 12.5811 24.9358V22.8309C14.015 23.125 15.449 23.41 16.8829 23.7041C16.7909 24.1269 16.745 24.5773 16.745 25.0277C16.6898 25.1288 16.6623 25.2575 16.6715 25.4138C16.8461 28.539 18.1789 31.7009 21.6074 32.2432C24.6315 32.7304 27.8946 30.745 28.492 27.6565C28.5656 27.2797 28.6023 26.9028 28.6023 26.526C28.9976 26.0848 29.5031 25.7998 30.0638 25.6711L30.119 31.0943C30.119 31.3424 30.2201 31.5263 30.3672 31.6458C30.5786 31.8847 30.9278 32.0134 31.2955 31.8112C31.6908 31.5906 32.2515 31.37 32.5824 31.3516C32.6835 31.3516 32.7846 31.3516 32.8857 31.3516H32.8949C32.8949 31.3516 32.9868 31.37 33.0236 31.3792C33.2442 31.4344 33.1247 31.3792 33.3177 31.5079C33.3545 31.5355 33.3729 31.5447 33.3912 31.5538L33.4096 31.5722C33.4556 31.6182 33.5015 31.6641 33.5383 31.7101C33.5567 31.7377 33.621 31.8204 33.6302 31.848C33.667 31.9123 33.7038 31.9767 33.7313 32.041C33.7038 32.0042 33.8049 32.28 33.8232 32.3535C33.8232 32.3903 33.8416 32.4087 33.8416 32.4271C33.8416 32.4271 33.8416 32.4454 33.8416 32.4638C33.8416 32.5466 33.8508 32.6293 33.8508 32.712C33.8508 32.7763 33.8508 32.8407 33.8416 32.8958C33.8416 32.9326 33.8232 33.0337 33.8141 33.0613C33.7957 33.1256 33.7773 33.1992 33.7589 33.2635V33.3095L33.7313 33.337C33.6946 33.4106 33.6578 33.4749 33.6118 33.5393V33.5576C33.6118 33.5576 33.5751 33.5852 33.5475 33.6128C33.5291 33.6312 33.4372 33.7139 33.428 33.7231C33.382 33.7507 33.3361 33.7782 33.2809 33.8058L33.2534 33.8242C33.2534 33.8242 33.2166 33.8242 33.1706 33.8426C33.1247 33.8518 33.0787 33.861 33.0328 33.8702C33.0144 33.8702 32.8581 33.8794 32.8305 33.8702C32.6559 33.861 32.757 33.8702 32.6467 33.861C32.1228 33.7691 31.6632 33.5117 31.222 33.2267C30.3947 32.6844 29.6318 34.008 30.4499 34.5504C31.9297 35.5155 34.2001 35.9383 35.0825 33.9805C35.7167 32.5741 35.2388 30.6623 33.7497 30.0188C33.0511 29.7247 32.3066 29.7707 31.608 29.9913L31.5621 25.6987C32.0309 25.8274 32.4629 26.0756 32.8213 26.4249C32.9592 26.5719 33.1247 26.6363 33.2809 26.6455C33.6854 28.6584 34.6321 30.5887 36.7922 31.1218C37.3345 31.2505 37.8584 31.2781 38.3548 31.2138C38.2445 36.2324 38.557 41.6923 35.0274 45.6816L35.0457 45.7275ZM41.2777 25.9561C41.2042 27.7025 39.9449 29.6971 38.0423 29.7707C35.634 29.8626 34.8803 27.4819 34.6505 25.4597C34.6873 25.3586 34.7057 25.2483 34.6873 25.1104C34.5218 23.7225 34.6321 21.9577 36.0201 21.2039C37.0771 20.6341 38.3824 20.919 39.3107 21.5992C40.6068 22.5459 41.3237 24.3751 41.2686 25.9469L41.2777 25.9561Z" fill="white"/>
<path d="M24.8006 24.0895C24.7363 23.8781 24.58 23.6943 24.3227 23.5932C23.2289 23.1795 22.5395 24.1998 22.3924 25.1466C22.2637 26.0014 22.3189 27.4721 23.3024 27.8305C25.3062 28.5659 26.0323 25.2661 24.8006 24.0895ZM23.7252 26.4058C23.7252 26.4058 23.7252 26.4242 23.7252 26.4334C23.7252 26.4426 23.6976 26.4242 23.7252 26.4058Z" fill="white"/>
<path d="M37.9422 24.0895C37.8779 23.8781 37.7216 23.6943 37.4643 23.5932C36.3705 23.1795 35.6811 24.1998 35.534 25.1466C35.4053 26.0014 35.4605 27.4721 36.444 27.8305C38.4478 28.5659 39.1739 25.2661 37.9422 24.0895ZM36.8668 26.4058C36.8668 26.4058 36.8668 26.4242 36.8668 26.4334C36.8668 26.4426 36.8392 26.4242 36.8668 26.4058Z" fill="white"/>
<path d="M18.1601 18.7035C17.8843 19.6502 19.3642 20.0547 19.6307 19.1079C20.1639 17.242 22.7835 17.1041 23.6292 18.7954C24.0704 19.6778 25.3848 18.9057 24.9528 18.0233C23.5005 15.1187 19.0425 15.6334 18.1601 18.7035V18.7035Z" fill="white"/>
</svg>
