<svg width="20" height="24" viewBox="0 0 20 24" fill="none" xmlns="http://www.w3.org/2000/svg">
<g clip-path="url(#clip0_62_1003)">
<path d="M3.4375 21C2.85734 21 2.30094 20.7234 1.8907 20.2312C1.48047 19.7389 1.25 19.0712 1.25 18.375V14.625C1.25 14.3266 1.34877 14.0405 1.52459 13.8295C1.7004 13.6185 1.93886 13.5 2.1875 13.5C2.43614 13.5 2.6746 13.6185 2.85041 13.8295C3.02623 14.0405 3.125 14.3266 3.125 14.625V18.375C3.125 18.582 3.265 18.75 3.4375 18.75H16.5625C16.6454 18.75 16.7249 18.7105 16.7835 18.6402C16.8421 18.5698 16.875 18.4745 16.875 18.375V14.625C16.875 14.3266 16.9738 14.0405 17.1496 13.8295C17.3254 13.6185 17.5639 13.5 17.8125 13.5C18.0611 13.5 18.2996 13.6185 18.4754 13.8295C18.6512 14.0405 18.75 14.3266 18.75 14.625V18.375C18.75 19.0712 18.5195 19.7389 18.1093 20.2312C17.6991 20.7234 17.1427 21 16.5625 21H3.4375Z" fill="#0A0F08"/>
<g clip-path="url(#clip1_62_1003)">
<path d="M8.55569 11.8479V1.73333C8.55569 1.37969 8.69618 1.04052 8.94624 0.790455C9.19631 0.540388 9.53547 0.399902 9.88912 0.399902C10.2428 0.399902 10.5819 0.540388 10.832 0.790455C11.0821 1.04052 11.2226 1.37969 11.2226 1.73333V11.8479L14.725 8.34715C14.8488 8.22341 14.9957 8.12525 15.1574 8.05828C15.319 7.99131 15.4923 7.95684 15.6673 7.95684C15.8423 7.95684 16.0156 7.99131 16.1773 8.05828C16.339 8.12525 16.4859 8.22341 16.6096 8.34715C16.7334 8.47089 16.8315 8.6178 16.8985 8.77948C16.9655 8.94116 16.9999 9.11444 16.9999 9.28944C16.9999 9.46444 16.9655 9.63773 16.8985 9.79941C16.8315 9.96109 16.7334 10.108 16.6096 10.2317L10.8314 16.0099C10.5814 16.2596 10.2425 16.3999 9.88912 16.3999C9.53576 16.3999 9.19685 16.2596 8.94683 16.0099L3.16863 10.2317C3.04489 10.108 2.94673 9.96109 2.87976 9.79941C2.81279 9.63773 2.77832 9.46444 2.77832 9.28944C2.77832 9.11444 2.81279 8.94116 2.87976 8.77948C2.94673 8.6178 3.04489 8.47089 3.16863 8.34715C3.29237 8.22341 3.43928 8.12525 3.60096 8.05828C3.76264 7.99131 3.93592 7.95684 4.11092 7.95684C4.28592 7.95684 4.45921 7.99131 4.62089 8.05828C4.78256 8.12525 4.92947 8.22341 5.05321 8.34715L8.55569 11.8479Z" fill="#0A0F08"/>
</g>
</g>
<defs>
<clipPath id="clip0_62_1003">
<rect width="20" height="24" fill="white"/>
</clipPath>
<clipPath id="clip1_62_1003">
<rect width="26.4" height="18" fill="white" transform="translate(1 21.6001) rotate(-90)"/>
</clipPath>
</defs>
</svg>
