<svg width="22" height="18" viewBox="0 0 22 18" fill="none" xmlns="http://www.w3.org/2000/svg">
<path d="M14.448 10.4443L4.33343 10.4443C3.97978 10.4443 3.64062 10.3038 3.39055 10.0538C3.14049 9.80369 3 9.46453 3 9.11088C3 8.75723 3.14049 8.41807 3.39055 8.168C3.64062 7.91793 3.97978 7.77745 4.33343 7.77745L14.448 7.77745L10.9472 4.27497C10.8235 4.15122 10.7253 4.00432 10.6584 3.84264C10.5914 3.68096 10.5569 3.50767 10.5569 3.33268C10.5569 3.15768 10.5914 2.98439 10.6584 2.82271C10.7253 2.66103 10.8235 2.51413 10.9472 2.39038C11.071 2.26664 11.2179 2.16848 11.3796 2.10151C11.5413 2.03454 11.7145 2.00007 11.8895 2.00007C12.0645 2.00007 12.2378 2.03454 12.3995 2.10151C12.5612 2.16848 12.7081 2.26664 12.8318 2.39038L18.61 8.16859C18.8597 8.4186 19 8.75752 19 9.11088C19 9.46424 18.8597 9.80315 18.61 10.0532L12.8318 15.8314C12.7081 15.9551 12.5612 16.0533 12.3995 16.1202C12.2378 16.1872 12.0645 16.2217 11.8895 16.2217C11.7145 16.2217 11.5413 16.1872 11.3796 16.1202C11.2179 16.0533 11.071 15.9551 10.9472 15.8314C10.8235 15.7076 10.7253 15.5607 10.6584 15.399C10.5914 15.2374 10.5569 15.0641 10.5569 14.8891C10.5569 14.7141 10.5914 14.5408 10.6584 14.3791C10.7253 14.2174 10.8235 14.0705 10.9472 13.9468L14.448 10.4443Z" fill="#0A0F08"/>
</svg>
