<svg width="18" height="22" viewBox="0 0 18 22" fill="none" xmlns="http://www.w3.org/2000/svg">
<g clip-path="url(#clip0_64_1193)">
<path d="M7.55569 14.448V4.33343C7.55569 3.97978 7.69618 3.64062 7.94624 3.39055C8.19631 3.14049 8.53547 3 8.88912 3C9.24277 3 9.58193 3.14049 9.832 3.39055C10.0821 3.64062 10.2226 3.97978 10.2226 4.33343V14.448L13.725 10.9472C13.8488 10.8235 13.9957 10.7253 14.1574 10.6584C14.319 10.5914 14.4923 10.5569 14.6673 10.5569C14.8423 10.5569 15.0156 10.5914 15.1773 10.6584C15.339 10.7253 15.4859 10.8235 15.6096 10.9472C15.7334 11.071 15.8315 11.2179 15.8985 11.3796C15.9655 11.5413 15.9999 11.7145 15.9999 11.8895C15.9999 12.0645 15.9655 12.2378 15.8985 12.3995C15.8315 12.5612 15.7334 12.7081 15.6096 12.8318L9.83141 18.61C9.58139 18.8597 9.24248 19 8.88912 19C8.53576 19 8.19685 18.8597 7.94683 18.61L2.16863 12.8318C2.04489 12.7081 1.94673 12.5612 1.87976 12.3995C1.81279 12.2378 1.77832 12.0645 1.77832 11.8895C1.77832 11.7145 1.81279 11.5413 1.87976 11.3796C1.94673 11.2179 2.04489 11.071 2.16863 10.9472C2.29237 10.8235 2.43928 10.7253 2.60096 10.6584C2.76264 10.5914 2.93592 10.5569 3.11092 10.5569C3.28592 10.5569 3.45921 10.5914 3.62089 10.6584C3.78256 10.7253 3.92947 10.8235 4.05321 10.9472L7.55569 14.448Z" fill="#0A0F08"/>
</g>
<defs>
<clipPath id="clip0_64_1193">
<rect width="22" height="18" fill="white" transform="translate(0 22) rotate(-90)"/>
</clipPath>
</defs>
</svg>
